<svg xmlns="http://www.w3.org/2000/svg" viewBox="0 0 32 32"><g><ellipse cx="16" cy="16" rx="16" ry="16" fill="#00758F"/><path d="M23.5 22.5c-2.5 1.2-7.5 1.2-10 0-.5-.2-.5-.8 0-1 .5-.2 1.2-.4 2-.5 0 0-.2-.1-.2-.2-.7-.2-1.2-.5-1.2-.9 0-.4.5-.7 1.2-.9.2-.1.4-.1.6-.2-.2-.2-.3-.4-.3-.6 0-.4.5-.7 1.2-.9.2-.1.4-.1.6-.2-.2-.2-.3-.4-.3-.6 0-.4.5-.7 1.2-.9.2-.1.4-.1.6-.2-.2-.2-.3-.4-.3-.6 0-.4.5-.7 1.2-.9.2-.1.4-.1.6-.2-.2-.2-.3-.4-.3-.6 0-.4.5-.7 1.2-.9.2-.1.4-.1.6-.2-.2-.2-.3-.4-.3-.6 0-.4.5-.7 1.2-.9.2-.1.4-.1.6-.2-.2-.2-.3-.4-.3-.6 0-.4.5-.7 1.2-.9.2-.1.4-.1.6-.2-.2-.2-.3-.4-.3-.6 0-.4.5-.7 1.2-.9.2-.1.4-.1.6-.2-.2-.2-.3-.4-.3-.6 0-.4.5-.7 1.2-.9.2-.1.4-.1.6-.2-.2-.2-.3-.4-.3-.6 0-.4.5-.7 1.2-.9.2-.1.4-.1.6-.2-.2-.2-.3-.4-.3-.6 0-.4.5-.7 1.2-.9.2-.1.4-.1.6-.2-.2-.2-.3-.4-.3-.6 0-.4.5-.7 1.2-.9.2-.1.4-.1.6-.2-.2-.2-.3-.4-.3-.6 0-.4.5-.7 1.2-.9.2-.1.4-.1.6-.2-.2-.2-.3-.4-.3-.6 0-.4.5-.7 1.2-.9.2-.1.4-.1.6-.2-.2-.2-.3-.4-.3-.6 0-.4.5-.7 1.2-.9.2-.1.4-.1.6-.2-.2-.2-.3-.4-.3-.6 0-.4.5-.7 1.2-.9.2-.1.4-.1.6-.2-.2-.2-.3-.4-.3-.6 0-.4.5-.7 1.2-.9.2-.1.4-.1.6-.2-.2-.2-.3-.4-.3-.6 0-.4.5-.7 1.2-.9.2-.1.4-.1.6-.2-.2-.2-.3-.4-.3-.6 0-.4.5-.7 1.2-.9.2-.1.4-.1.6-.2-.2-.2-.3-.4-.3-.6 0-.4.5-.7 1.2-.9.2-.1.4-.1.6-.2-.2-.2-.3-.4-.3-.6z" fill="#fff"/></g></svg>
