<svg xmlns="http://www.w3.org/2000/svg" viewBox="0 0 32 32"><g><path fill="#3776AB" d="M16.002 2.002c-7.732 0-7.25 3.354-7.25 3.354l.008 3.48h7.322v1.045H6.25S2 9.02 2 16.002c0 6.982 3.354 6.25 3.354 6.25h2.25v-3.25s-.11-3.354 3.354-3.354h7.25s3.354.11 3.354-3.354V5.356s.482-3.354-7.25-3.354zm-4.25 2.25a1.125 1.125 0 1 1 0 2.25 1.125 1.125 0 0 1 0-2.25z"/><path fill="#FFD43B" d="M15.998 29.998c7.732 0 7.25-3.354 7.25-3.354l-.008-3.48h-7.322v-1.045h9.082s4.25-1.139 4.25-8.121c0-6.982-3.354-6.25-3.354-6.25h-2.25v3.25s.11 3.354-3.354 3.354h-7.25s-3.354-.11-3.354 3.354v7.25s-.482 3.354 7.25 3.354zm4.25-2.25a1.125 1.125 0 1 1 0-2.25 1.125 1.125 0 0 1 0 2.25z"/></g></svg>
